<svg id="visual" viewBox="0 0 900 200" width="900" height="200" xmlns="http://www.w3.org/2000/svg" xmlns:xlink="http://www.w3.org/1999/xlink" version="1.1"><rect x="0" y="0" width="900" height="200" fill="#212529"></rect><path d="M0 64L12.5 71C25 78 50 92 75 103.5C100 115 125 124 150 118.7C175 113.3 200 93.7 225 87.3C250 81 275 88 300 100.3C325 112.7 350 130.3 375 138.3C400 146.3 425 144.7 450 136.7C475 128.7 500 114.3 525 115.2C550 116 575 132 600 138C625 144 650 140 675 133.3C700 126.7 725 117.3 750 113.8C775 110.3 800 112.7 825 108.8C850 105 875 95 887.5 90L900 85L900 0L887.5 0C875 0 850 0 825 0C800 0 775 0 750 0C725 0 700 0 675 0C650 0 625 0 600 0C575 0 550 0 525 0C500 0 475 0 450 0C425 0 400 0 375 0C350 0 325 0 300 0C275 0 250 0 225 0C200 0 175 0 150 0C125 0 100 0 75 0C50 0 25 0 12.5 0L0 0Z" fill="#0036aa" stroke-linecap="round" stroke-linejoin="miter"></path></svg>