<svg id="visual" viewBox="0 0 900 400" width="900" height="400" xmlns="http://www.w3.org/2000/svg" xmlns:xlink="http://www.w3.org/1999/xlink" version="1.1"><rect x="0" y="0" width="900" height="400" fill="#212529"></rect><path d="M0 255L16.7 252.8C33.3 250.7 66.7 246.3 100 250.2C133.3 254 166.7 266 200 271.8C233.3 277.7 266.7 277.3 300 260.3C333.3 243.3 366.7 209.7 400 204.8C433.3 200 466.7 224 500 241C533.3 258 566.7 268 600 268.7C633.3 269.3 666.7 260.7 700 248.3C733.3 236 766.7 220 800 222.5C833.3 225 866.7 246 883.3 256.5L900 267L900 0L883.3 0C866.7 0 833.3 0 800 0C766.7 0 733.3 0 700 0C666.7 0 633.3 0 600 0C566.7 0 533.3 0 500 0C466.7 0 433.3 0 400 0C366.7 0 333.3 0 300 0C266.7 0 233.3 0 200 0C166.7 0 133.3 0 100 0C66.7 0 33.3 0 16.7 0L0 0Z" fill="#0036aa" stroke-linecap="round" stroke-linejoin="miter"></path></svg>