<svg id="visual" viewBox="0 0 900 200" width="900" height="200" xmlns="http://www.w3.org/2000/svg" xmlns:xlink="http://www.w3.org/1999/xlink" version="1.1"><rect x="0" y="0" width="900" height="200" fill="#212529"></rect><path d="M0 101L8.8 102.8C17.7 104.7 35.3 108.3 53 111.5C70.7 114.7 88.3 117.3 106 110C123.7 102.7 141.3 85.3 159 84.5C176.7 83.7 194.3 99.3 212 98.8C229.7 98.3 247.3 81.7 265 72.8C282.7 64 300.3 63 318 66.8C335.7 70.7 353.3 79.3 371 82.5C388.7 85.7 406.3 83.3 423.8 88.2C441.3 93 458.7 105 476.2 108.5C493.7 112 511.3 107 529 103.3C546.7 99.7 564.3 97.3 582 92.7C599.7 88 617.3 81 635 78.8C652.7 76.7 670.3 79.3 688 79.2C705.7 79 723.3 76 741 79.5C758.7 83 776.3 93 794 96C811.7 99 829.3 95 847 91.3C864.7 87.7 882.3 84.3 891.2 82.7L900 81L900 201L891.2 201C882.3 201 864.7 201 847 201C829.3 201 811.7 201 794 201C776.3 201 758.7 201 741 201C723.3 201 705.7 201 688 201C670.3 201 652.7 201 635 201C617.3 201 599.7 201 582 201C564.3 201 546.7 201 529 201C511.3 201 493.7 201 476.2 201C458.7 201 441.3 201 423.8 201C406.3 201 388.7 201 371 201C353.3 201 335.7 201 318 201C300.3 201 282.7 201 265 201C247.3 201 229.7 201 212 201C194.3 201 176.7 201 159 201C141.3 201 123.7 201 106 201C88.3 201 70.7 201 53 201C35.3 201 17.7 201 8.8 201L0 201Z" fill="#fa7268"></path><path d="M0 124L8.8 118C17.7 112 35.3 100 53 97.3C70.7 94.7 88.3 101.3 106 101C123.7 100.7 141.3 93.3 159 90.5C176.7 87.7 194.3 89.3 212 95.5C229.7 101.7 247.3 112.3 265 120.5C282.7 128.7 300.3 134.3 318 131.8C335.7 129.3 353.3 118.7 371 117.5C388.7 116.3 406.3 124.7 423.8 124.7C441.3 124.7 458.7 116.3 476.2 113.8C493.7 111.3 511.3 114.7 529 112.8C546.7 111 564.3 104 582 103.7C599.7 103.3 617.3 109.7 635 115.5C652.7 121.3 670.3 126.7 688 125.8C705.7 125 723.3 118 741 110.3C758.7 102.7 776.3 94.3 794 90.2C811.7 86 829.3 86 847 91.5C864.7 97 882.3 108 891.2 113.5L900 119L900 201L891.2 201C882.3 201 864.7 201 847 201C829.3 201 811.7 201 794 201C776.3 201 758.7 201 741 201C723.3 201 705.7 201 688 201C670.3 201 652.7 201 635 201C617.3 201 599.7 201 582 201C564.3 201 546.7 201 529 201C511.3 201 493.7 201 476.2 201C458.7 201 441.3 201 423.8 201C406.3 201 388.7 201 371 201C353.3 201 335.7 201 318 201C300.3 201 282.7 201 265 201C247.3 201 229.7 201 212 201C194.3 201 176.7 201 159 201C141.3 201 123.7 201 106 201C88.3 201 70.7 201 53 201C35.3 201 17.7 201 8.8 201L0 201Z" fill="#ef5f67"></path><path d="M0 146L8.8 147.3C17.7 148.7 35.3 151.3 53 145.2C70.7 139 88.3 124 106 123.8C123.7 123.7 141.3 138.3 159 143C176.7 147.7 194.3 142.3 212 141.8C229.7 141.3 247.3 145.7 265 144.2C282.7 142.7 300.3 135.3 318 128.8C335.7 122.3 353.3 116.7 371 118.2C388.7 119.7 406.3 128.3 423.8 133.3C441.3 138.3 458.7 139.7 476.2 136.3C493.7 133 511.3 125 529 126.3C546.7 127.7 564.3 138.3 582 143.2C599.7 148 617.3 147 635 146.2C652.7 145.3 670.3 144.7 688 142.8C705.7 141 723.3 138 741 138.2C758.7 138.3 776.3 141.7 794 145C811.7 148.3 829.3 151.7 847 152.2C864.7 152.7 882.3 150.3 891.2 149.2L900 148L900 201L891.2 201C882.3 201 864.7 201 847 201C829.3 201 811.7 201 794 201C776.3 201 758.7 201 741 201C723.3 201 705.7 201 688 201C670.3 201 652.7 201 635 201C617.3 201 599.7 201 582 201C564.3 201 546.7 201 529 201C511.3 201 493.7 201 476.2 201C458.7 201 441.3 201 423.8 201C406.3 201 388.7 201 371 201C353.3 201 335.7 201 318 201C300.3 201 282.7 201 265 201C247.3 201 229.7 201 212 201C194.3 201 176.7 201 159 201C141.3 201 123.7 201 106 201C88.3 201 70.7 201 53 201C35.3 201 17.7 201 8.8 201L0 201Z" fill="#e34c67"></path><path d="M0 168L8.8 164C17.7 160 35.3 152 53 148C70.7 144 88.3 144 106 142.3C123.7 140.7 141.3 137.3 159 141.3C176.7 145.3 194.3 156.7 212 159C229.7 161.3 247.3 154.7 265 149.2C282.7 143.7 300.3 139.3 318 139.8C335.7 140.3 353.3 145.7 371 150.7C388.7 155.7 406.3 160.3 423.8 162.2C441.3 164 458.7 163 476.2 158C493.7 153 511.3 144 529 142.5C546.7 141 564.3 147 582 150.7C599.7 154.3 617.3 155.7 635 158.7C652.7 161.7 670.3 166.3 688 163.5C705.7 160.7 723.3 150.3 741 148.8C758.7 147.3 776.3 154.7 794 157.7C811.7 160.7 829.3 159.3 847 160.2C864.7 161 882.3 164 891.2 165.5L900 167L900 201L891.2 201C882.3 201 864.7 201 847 201C829.3 201 811.7 201 794 201C776.3 201 758.7 201 741 201C723.3 201 705.7 201 688 201C670.3 201 652.7 201 635 201C617.3 201 599.7 201 582 201C564.3 201 546.7 201 529 201C511.3 201 493.7 201 476.2 201C458.7 201 441.3 201 423.8 201C406.3 201 388.7 201 371 201C353.3 201 335.7 201 318 201C300.3 201 282.7 201 265 201C247.3 201 229.7 201 212 201C194.3 201 176.7 201 159 201C141.3 201 123.7 201 106 201C88.3 201 70.7 201 53 201C35.3 201 17.7 201 8.8 201L0 201Z" fill="#d53867"></path><path d="M0 173L8.8 175.5C17.7 178 35.3 183 53 181C70.7 179 88.3 170 106 167.2C123.7 164.3 141.3 167.7 159 171.8C176.7 176 194.3 181 212 182.2C229.7 183.3 247.3 180.7 265 179.7C282.7 178.7 300.3 179.3 318 177.5C335.7 175.7 353.3 171.3 371 168C388.7 164.7 406.3 162.3 423.8 165.2C441.3 168 458.7 176 476.2 178.2C493.7 180.3 511.3 176.7 529 177C546.7 177.3 564.3 181.7 582 181C599.7 180.3 617.3 174.7 635 171C652.7 167.3 670.3 165.7 688 167.3C705.7 169 723.3 174 741 176.8C758.7 179.7 776.3 180.3 794 178.3C811.7 176.3 829.3 171.7 847 172.5C864.7 173.3 882.3 179.7 891.2 182.8L900 186L900 201L891.2 201C882.3 201 864.7 201 847 201C829.3 201 811.7 201 794 201C776.3 201 758.7 201 741 201C723.3 201 705.7 201 688 201C670.3 201 652.7 201 635 201C617.3 201 599.7 201 582 201C564.3 201 546.7 201 529 201C511.3 201 493.7 201 476.2 201C458.7 201 441.3 201 423.8 201C406.3 201 388.7 201 371 201C353.3 201 335.7 201 318 201C300.3 201 282.7 201 265 201C247.3 201 229.7 201 212 201C194.3 201 176.7 201 159 201C141.3 201 123.7 201 106 201C88.3 201 70.7 201 53 201C35.3 201 17.7 201 8.8 201L0 201Z" fill="#c62368"></path></svg>