<svg id="visual" viewBox="0 0 900 200" width="900" height="200" xmlns="http://www.w3.org/2000/svg" xmlns:xlink="http://www.w3.org/1999/xlink" version="1.1"><rect x="0" y="0" width="900" height="200" fill="#001220"></rect><path d="M0 49L10.7 56C21.3 63 42.7 77 64.2 84.3C85.7 91.7 107.3 92.3 128.8 89.8C150.3 87.3 171.7 81.7 193 80.8C214.3 80 235.7 84 257 79.8C278.3 75.7 299.7 63.3 321.2 60.3C342.7 57.3 364.3 63.7 385.8 71C407.3 78.3 428.7 86.7 450 90.7C471.3 94.7 492.7 94.3 514.2 88.7C535.7 83 557.3 72 578.8 69C600.3 66 621.7 71 643 70.8C664.3 70.7 685.7 65.3 707 66.5C728.3 67.7 749.7 75.3 771.2 74.7C792.7 74 814.3 65 835.8 60C857.3 55 878.7 54 889.3 53.5L900 53L900 0L889.3 0C878.7 0 857.3 0 835.8 0C814.3 0 792.7 0 771.2 0C749.7 0 728.3 0 707 0C685.7 0 664.3 0 643 0C621.7 0 600.3 0 578.8 0C557.3 0 535.7 0 514.2 0C492.7 0 471.3 0 450 0C428.7 0 407.3 0 385.8 0C364.3 0 342.7 0 321.2 0C299.7 0 278.3 0 257 0C235.7 0 214.3 0 193 0C171.7 0 150.3 0 128.8 0C107.3 0 85.7 0 64.2 0C42.7 0 21.3 0 10.7 0L0 0Z" fill="#fa7268"></path><path d="M0 73L10.7 73.3C21.3 73.7 42.7 74.3 64.2 69.3C85.7 64.3 107.3 53.7 128.8 48.8C150.3 44 171.7 45 193 46.8C214.3 48.7 235.7 51.3 257 50C278.3 48.7 299.7 43.3 321.2 44.2C342.7 45 364.3 52 385.8 53.3C407.3 54.7 428.7 50.3 450 50.7C471.3 51 492.7 56 514.2 55.2C535.7 54.3 557.3 47.7 578.8 49.5C600.3 51.3 621.7 61.7 643 64.3C664.3 67 685.7 62 707 61.5C728.3 61 749.7 65 771.2 65C792.7 65 814.3 61 835.8 60.7C857.3 60.3 878.7 63.7 889.3 65.3L900 67L900 0L889.3 0C878.7 0 857.3 0 835.8 0C814.3 0 792.7 0 771.2 0C749.7 0 728.3 0 707 0C685.7 0 664.3 0 643 0C621.7 0 600.3 0 578.8 0C557.3 0 535.7 0 514.2 0C492.7 0 471.3 0 450 0C428.7 0 407.3 0 385.8 0C364.3 0 342.7 0 321.2 0C299.7 0 278.3 0 257 0C235.7 0 214.3 0 193 0C171.7 0 150.3 0 128.8 0C107.3 0 85.7 0 64.2 0C42.7 0 21.3 0 10.7 0L0 0Z" fill="#ef5f67"></path><path d="M0 60L10.7 57.5C21.3 55 42.7 50 64.2 48.7C85.7 47.3 107.3 49.7 128.8 49.8C150.3 50 171.7 48 193 48.7C214.3 49.3 235.7 52.7 257 52C278.3 51.3 299.7 46.7 321.2 43.3C342.7 40 364.3 38 385.8 40.3C407.3 42.7 428.7 49.3 450 52C471.3 54.7 492.7 53.3 514.2 48.2C535.7 43 557.3 34 578.8 33.5C600.3 33 621.7 41 643 43.5C664.3 46 685.7 43 707 39.8C728.3 36.7 749.7 33.3 771.2 31.2C792.7 29 814.3 28 835.8 32.3C857.3 36.7 878.7 46.3 889.3 51.2L900 56L900 0L889.3 0C878.7 0 857.3 0 835.8 0C814.3 0 792.7 0 771.2 0C749.7 0 728.3 0 707 0C685.7 0 664.3 0 643 0C621.7 0 600.3 0 578.8 0C557.3 0 535.7 0 514.2 0C492.7 0 471.3 0 450 0C428.7 0 407.3 0 385.8 0C364.3 0 342.7 0 321.2 0C299.7 0 278.3 0 257 0C235.7 0 214.3 0 193 0C171.7 0 150.3 0 128.8 0C107.3 0 85.7 0 64.2 0C42.7 0 21.3 0 10.7 0L0 0Z" fill="#e34c67"></path><path d="M0 17L10.7 21.2C21.3 25.3 42.7 33.7 64.2 37.2C85.7 40.7 107.3 39.3 128.8 35.7C150.3 32 171.7 26 193 22C214.3 18 235.7 16 257 15C278.3 14 299.7 14 321.2 18.8C342.7 23.7 364.3 33.3 385.8 36.2C407.3 39 428.7 35 450 30.3C471.3 25.7 492.7 20.3 514.2 18.3C535.7 16.3 557.3 17.7 578.8 19.3C600.3 21 621.7 23 643 22.5C664.3 22 685.7 19 707 19.3C728.3 19.7 749.7 23.3 771.2 23.3C792.7 23.3 814.3 19.7 835.8 21.2C857.3 22.7 878.7 29.3 889.3 32.7L900 36L900 0L889.3 0C878.7 0 857.3 0 835.8 0C814.3 0 792.7 0 771.2 0C749.7 0 728.3 0 707 0C685.7 0 664.3 0 643 0C621.7 0 600.3 0 578.8 0C557.3 0 535.7 0 514.2 0C492.7 0 471.3 0 450 0C428.7 0 407.3 0 385.8 0C364.3 0 342.7 0 321.2 0C299.7 0 278.3 0 257 0C235.7 0 214.3 0 193 0C171.7 0 150.3 0 128.8 0C107.3 0 85.7 0 64.2 0C42.7 0 21.3 0 10.7 0L0 0Z" fill="#d53867"></path><path d="M0 10L10.7 11.8C21.3 13.7 42.7 17.3 64.2 19.5C85.7 21.7 107.3 22.3 128.8 24C150.3 25.7 171.7 28.3 193 28.8C214.3 29.3 235.7 27.7 257 23.5C278.3 19.3 299.7 12.7 321.2 11.7C342.7 10.7 364.3 15.3 385.8 17.3C407.3 19.3 428.7 18.7 450 18.5C471.3 18.3 492.7 18.7 514.2 16.5C535.7 14.3 557.3 9.7 578.8 8.3C600.3 7 621.7 9 643 10.2C664.3 11.3 685.7 11.7 707 12.5C728.3 13.3 749.7 14.7 771.2 14C792.7 13.3 814.3 10.7 835.8 8.3C857.3 6 878.7 4 889.3 3L900 2L900 0L889.3 0C878.7 0 857.3 0 835.8 0C814.3 0 792.7 0 771.2 0C749.7 0 728.3 0 707 0C685.7 0 664.3 0 643 0C621.7 0 600.3 0 578.8 0C557.3 0 535.7 0 514.2 0C492.7 0 471.3 0 450 0C428.7 0 407.3 0 385.8 0C364.3 0 342.7 0 321.2 0C299.7 0 278.3 0 257 0C235.7 0 214.3 0 193 0C171.7 0 150.3 0 128.8 0C107.3 0 85.7 0 64.2 0C42.7 0 21.3 0 10.7 0L0 0Z" fill="#c62368"></path></svg>