<svg id="visual" viewBox="0 0 960 540" width="960" height="540" xmlns="http://www.w3.org/2000/svg" xmlns:xlink="http://www.w3.org/1999/xlink" version="1.1"><rect x="0" y="0" width="960" height="540" fill="#212529"></rect><path d="M0 428L12.3 423.3C24.7 418.7 49.3 409.3 74 414.7C98.7 420 123.3 440 148 441.8C172.7 443.7 197.3 427.3 221.8 418C246.3 408.7 270.7 406.3 295.2 403.2C319.7 400 344.3 396 369 397C393.7 398 418.3 404 443 413.5C467.7 423 492.3 436 517 435C541.7 434 566.3 419 591 417.5C615.7 416 640.3 428 664.8 429.8C689.3 431.7 713.7 423.3 738.2 420C762.7 416.7 787.3 418.3 812 416.3C836.7 414.3 861.3 408.7 886 411.3C910.7 414 935.3 425 947.7 430.5L960 436L960 541L947.7 541C935.3 541 910.7 541 886 541C861.3 541 836.7 541 812 541C787.3 541 762.7 541 738.2 541C713.7 541 689.3 541 664.8 541C640.3 541 615.7 541 591 541C566.3 541 541.7 541 517 541C492.3 541 467.7 541 443 541C418.3 541 393.7 541 369 541C344.3 541 319.7 541 295.2 541C270.7 541 246.3 541 221.8 541C197.3 541 172.7 541 148 541C123.3 541 98.7 541 74 541C49.3 541 24.7 541 12.3 541L0 541Z" fill="#fa7268"></path><path d="M0 473L12.3 470.8C24.7 468.7 49.3 464.3 74 464.2C98.7 464 123.3 468 148 467.7C172.7 467.3 197.3 462.7 221.8 463.5C246.3 464.3 270.7 470.7 295.2 463.8C319.7 457 344.3 437 369 433C393.7 429 418.3 441 443 443.7C467.7 446.3 492.3 439.7 517 434C541.7 428.3 566.3 423.7 591 429.8C615.7 436 640.3 453 664.8 460C689.3 467 713.7 464 738.2 465C762.7 466 787.3 471 812 469.7C836.7 468.3 861.3 460.7 886 459C910.7 457.3 935.3 461.7 947.7 463.8L960 466L960 541L947.7 541C935.3 541 910.7 541 886 541C861.3 541 836.7 541 812 541C787.3 541 762.7 541 738.2 541C713.7 541 689.3 541 664.8 541C640.3 541 615.7 541 591 541C566.3 541 541.7 541 517 541C492.3 541 467.7 541 443 541C418.3 541 393.7 541 369 541C344.3 541 319.7 541 295.2 541C270.7 541 246.3 541 221.8 541C197.3 541 172.7 541 148 541C123.3 541 98.7 541 74 541C49.3 541 24.7 541 12.3 541L0 541Z" fill="#ef5f67"></path><path d="M0 444L12.3 444.7C24.7 445.3 49.3 446.7 74 452.2C98.7 457.7 123.3 467.3 148 473.8C172.7 480.3 197.3 483.7 221.8 485.5C246.3 487.3 270.7 487.7 295.2 482C319.7 476.3 344.3 464.7 369 464.5C393.7 464.3 418.3 475.7 443 474C467.7 472.3 492.3 457.7 517 453.2C541.7 448.7 566.3 454.3 591 456.7C615.7 459 640.3 458 664.8 458.7C689.3 459.3 713.7 461.7 738.2 466.3C762.7 471 787.3 478 812 477.2C836.7 476.3 861.3 467.7 886 469C910.7 470.3 935.3 481.7 947.7 487.3L960 493L960 541L947.7 541C935.3 541 910.7 541 886 541C861.3 541 836.7 541 812 541C787.3 541 762.7 541 738.2 541C713.7 541 689.3 541 664.8 541C640.3 541 615.7 541 591 541C566.3 541 541.7 541 517 541C492.3 541 467.7 541 443 541C418.3 541 393.7 541 369 541C344.3 541 319.7 541 295.2 541C270.7 541 246.3 541 221.8 541C197.3 541 172.7 541 148 541C123.3 541 98.7 541 74 541C49.3 541 24.7 541 12.3 541L0 541Z" fill="#e34c67"></path><path d="M0 477L12.3 481.3C24.7 485.7 49.3 494.3 74 499.8C98.7 505.3 123.3 507.7 148 506.7C172.7 505.7 197.3 501.3 221.8 495C246.3 488.7 270.7 480.3 295.2 478.7C319.7 477 344.3 482 369 485.7C393.7 489.3 418.3 491.7 443 490.2C467.7 488.7 492.3 483.3 517 479.7C541.7 476 566.3 474 591 476.3C615.7 478.7 640.3 485.3 664.8 484.7C689.3 484 713.7 476 738.2 472.7C762.7 469.3 787.3 470.7 812 472.5C836.7 474.3 861.3 476.7 886 482.5C910.7 488.3 935.3 497.7 947.7 502.3L960 507L960 541L947.7 541C935.3 541 910.7 541 886 541C861.3 541 836.7 541 812 541C787.3 541 762.7 541 738.2 541C713.7 541 689.3 541 664.8 541C640.3 541 615.7 541 591 541C566.3 541 541.7 541 517 541C492.3 541 467.7 541 443 541C418.3 541 393.7 541 369 541C344.3 541 319.7 541 295.2 541C270.7 541 246.3 541 221.8 541C197.3 541 172.7 541 148 541C123.3 541 98.7 541 74 541C49.3 541 24.7 541 12.3 541L0 541Z" fill="#d53867"></path><path d="M0 502L12.3 500.5C24.7 499 49.3 496 74 498.7C98.7 501.3 123.3 509.7 148 513.5C172.7 517.3 197.3 516.7 221.8 515.3C246.3 514 270.7 512 295.2 509.2C319.7 506.3 344.3 502.7 369 504.3C393.7 506 418.3 513 443 513.7C467.7 514.3 492.3 508.7 517 507.7C541.7 506.7 566.3 510.3 591 510.5C615.7 510.7 640.3 507.3 664.8 505C689.3 502.7 713.7 501.3 738.2 503.3C762.7 505.3 787.3 510.7 812 511C836.7 511.3 861.3 506.7 886 509C910.7 511.3 935.3 520.7 947.7 525.3L960 530L960 541L947.7 541C935.3 541 910.7 541 886 541C861.3 541 836.7 541 812 541C787.3 541 762.7 541 738.2 541C713.7 541 689.3 541 664.8 541C640.3 541 615.7 541 591 541C566.3 541 541.7 541 517 541C492.3 541 467.7 541 443 541C418.3 541 393.7 541 369 541C344.3 541 319.7 541 295.2 541C270.7 541 246.3 541 221.8 541C197.3 541 172.7 541 148 541C123.3 541 98.7 541 74 541C49.3 541 24.7 541 12.3 541L0 541Z" fill="#c62368"></path></svg>