<svg id="visual" viewBox="0 0 900 200" width="900" height="200" xmlns="http://www.w3.org/2000/svg" xmlns:xlink="http://www.w3.org/1999/xlink" version="1.1"><path d="M0 45L11.5 42.7C23 40.3 46 35.7 69 33.3C92 31 115 31 138.2 31.7C161.3 32.3 184.7 33.7 207.8 34.3C231 35 254 35 277 36.7C300 38.3 323 41.7 346 40.7C369 39.7 392 34.3 415.2 30.3C438.3 26.3 461.7 23.7 484.8 23.3C508 23 531 25 554 25.3C577 25.7 600 24.3 623 25C646 25.7 669 28.3 692.2 28.7C715.3 29 738.7 27 761.8 30.3C785 33.7 808 42.3 831 45C854 47.7 877 44.3 888.5 42.7L900 41L900 0L888.5 0C877 0 854 0 831 0C808 0 785 0 761.8 0C738.7 0 715.3 0 692.2 0C669 0 646 0 623 0C600 0 577 0 554 0C531 0 508 0 484.8 0C461.7 0 438.3 0 415.2 0C392 0 369 0 346 0C323 0 300 0 277 0C254 0 231 0 207.8 0C184.7 0 161.3 0 138.2 0C115 0 92 0 69 0C46 0 23 0 11.5 0L0 0Z" fill="#6610f2"></path><path d="M0 95L11.5 91C23 87 46 79 69 80C92 81 115 91 138.2 93.7C161.3 96.3 184.7 91.7 207.8 88.7C231 85.7 254 84.3 277 82.7C300 81 323 79 346 75.3C369 71.7 392 66.3 415.2 69C438.3 71.7 461.7 82.3 484.8 89.7C508 97 531 101 554 99C577 97 600 89 623 85.3C646 81.7 669 82.3 692.2 80.3C715.3 78.3 738.7 73.7 761.8 75C785 76.3 808 83.7 831 90.3C854 97 877 103 888.5 106L900 109L900 39L888.5 40.7C877 42.3 854 45.7 831 43C808 40.3 785 31.7 761.8 28.3C738.7 25 715.3 27 692.2 26.7C669 26.3 646 23.7 623 23C600 22.3 577 23.7 554 23.3C531 23 508 21 484.8 21.3C461.7 21.7 438.3 24.3 415.2 28.3C392 32.3 369 37.7 346 38.7C323 39.7 300 36.3 277 34.7C254 33 231 33 207.8 32.3C184.7 31.7 161.3 30.3 138.2 29.7C115 29 92 29 69 31.3C46 33.7 23 38.3 11.5 40.7L0 43Z" fill="#3035d3"></path><path d="M0 111L11.5 109C23 107 46 103 69 106C92 109 115 119 138.2 119C161.3 119 184.7 109 207.8 105.7C231 102.3 254 105.7 277 103.7C300 101.7 323 94.3 346 91.7C369 89 392 91 415.2 94C438.3 97 461.7 101 484.8 104.7C508 108.3 531 111.7 554 113C577 114.3 600 113.7 623 113.3C646 113 669 113 692.2 107.7C715.3 102.3 738.7 91.7 761.8 90.3C785 89 808 97 831 104.3C854 111.7 877 118.3 888.5 121.7L900 125L900 107L888.5 104C877 101 854 95 831 88.3C808 81.7 785 74.3 761.8 73C738.7 71.7 715.3 76.3 692.2 78.3C669 80.3 646 79.7 623 83.3C600 87 577 95 554 97C531 99 508 95 484.8 87.7C461.7 80.3 438.3 69.7 415.2 67C392 64.3 369 69.7 346 73.3C323 77 300 79 277 80.7C254 82.3 231 83.7 207.8 86.7C184.7 89.7 161.3 94.3 138.2 91.7C115 89 92 79 69 78C46 77 23 85 11.5 89L0 93Z" fill="#003dae"></path><path d="M0 141L11.5 136.3C23 131.7 46 122.3 69 126C92 129.7 115 146.3 138.2 146C161.3 145.7 184.7 128.3 207.8 121.7C231 115 254 119 277 121.7C300 124.3 323 125.7 346 124.7C369 123.7 392 120.3 415.2 122.3C438.3 124.3 461.7 131.7 484.8 136.7C508 141.7 531 144.3 554 143C577 141.7 600 136.3 623 134.7C646 133 669 135 692.2 132.7C715.3 130.3 738.7 123.7 761.8 121.3C785 119 808 121 831 124.7C854 128.3 877 133.7 888.5 136.3L900 139L900 123L888.5 119.7C877 116.3 854 109.7 831 102.3C808 95 785 87 761.8 88.3C738.7 89.7 715.3 100.3 692.2 105.7C669 111 646 111 623 111.3C600 111.7 577 112.3 554 111C531 109.7 508 106.3 484.8 102.7C461.7 99 438.3 95 415.2 92C392 89 369 87 346 89.7C323 92.3 300 99.7 277 101.7C254 103.7 231 100.3 207.8 103.7C184.7 107 161.3 117 138.2 117C115 117 92 107 69 104C46 101 23 105 11.5 107L0 109Z" fill="#003b85"></path><path d="M0 161L11.5 154.7C23 148.3 46 135.7 69 137.7C92 139.7 115 156.3 138.2 158C161.3 159.7 184.7 146.3 207.8 141C231 135.7 254 138.3 277 139C300 139.7 323 138.3 346 136.7C369 135 392 133 415.2 135.3C438.3 137.7 461.7 144.3 484.8 149.7C508 155 531 159 554 158.7C577 158.3 600 153.7 623 152.7C646 151.7 669 154.3 692.2 152C715.3 149.7 738.7 142.3 761.8 140.7C785 139 808 143 831 148C854 153 877 159 888.5 162L900 165L900 137L888.5 134.3C877 131.7 854 126.3 831 122.7C808 119 785 117 761.8 119.3C738.7 121.7 715.3 128.3 692.2 130.7C669 133 646 131 623 132.7C600 134.3 577 139.7 554 141C531 142.3 508 139.7 484.8 134.7C461.7 129.7 438.3 122.3 415.2 120.3C392 118.3 369 121.7 346 122.7C323 123.7 300 122.3 277 119.7C254 117 231 113 207.8 119.7C184.7 126.3 161.3 143.7 138.2 144C115 144.3 92 127.7 69 124C46 120.3 23 129.7 11.5 134.3L0 139Z" fill="#043256"></path><path d="M0 201L11.5 201C23 201 46 201 69 201C92 201 115 201 138.2 201C161.3 201 184.7 201 207.8 201C231 201 254 201 277 201C300 201 323 201 346 201C369 201 392 201 415.2 201C438.3 201 461.7 201 484.8 201C508 201 531 201 554 201C577 201 600 201 623 201C646 201 669 201 692.2 201C715.3 201 738.7 201 761.8 201C785 201 808 201 831 201C854 201 877 201 888.5 201L900 201L900 163L888.5 160C877 157 854 151 831 146C808 141 785 137 761.8 138.7C738.7 140.3 715.3 147.7 692.2 150C669 152.3 646 149.7 623 150.7C600 151.7 577 156.3 554 156.7C531 157 508 153 484.8 147.7C461.7 142.3 438.3 135.7 415.2 133.3C392 131 369 133 346 134.7C323 136.3 300 137.7 277 137C254 136.3 231 133.7 207.8 139C184.7 144.3 161.3 157.7 138.2 156C115 154.3 92 137.7 69 135.7C46 133.7 23 146.3 11.5 152.7L0 159Z" fill="#212529"></path></svg>