<svg id="visual" viewBox="0 0 900 200" width="900" height="200" xmlns="http://www.w3.org/2000/svg" xmlns:xlink="http://www.w3.org/1999/xlink" version="1.1"><rect x="0" y="0" width="900" height="200" fill="#212529"></rect><path d="M0 125L9.3 123.7C18.7 122.3 37.3 119.7 56.2 120.2C75 120.7 94 124.3 112.8 124.3C131.7 124.3 150.3 120.7 169 120C187.7 119.3 206.3 121.7 225 122.5C243.7 123.3 262.3 122.7 281.2 123.8C300 125 319 128 337.8 126.8C356.7 125.7 375.3 120.3 394 118.5C412.7 116.7 431.3 118.3 450 122C468.7 125.7 487.3 131.3 506.2 132.8C525 134.3 544 131.7 562.8 131C581.7 130.3 600.3 131.7 619 130.3C637.7 129 656.3 125 675 124C693.7 123 712.3 125 731.2 126C750 127 769 127 787.8 127.3C806.7 127.7 825.3 128.3 844 126.8C862.7 125.3 881.3 121.7 890.7 119.8L900 118L900 201L890.7 201C881.3 201 862.7 201 844 201C825.3 201 806.7 201 787.8 201C769 201 750 201 731.2 201C712.3 201 693.7 201 675 201C656.3 201 637.7 201 619 201C600.3 201 581.7 201 562.8 201C544 201 525 201 506.2 201C487.3 201 468.7 201 450 201C431.3 201 412.7 201 394 201C375.3 201 356.7 201 337.8 201C319 201 300 201 281.2 201C262.3 201 243.7 201 225 201C206.3 201 187.7 201 169 201C150.3 201 131.7 201 112.8 201C94 201 75 201 56.2 201C37.3 201 18.7 201 9.3 201L0 201Z" fill="#00faaa"></path><path d="M0 130L9.3 130.5C18.7 131 37.3 132 56.2 132.7C75 133.3 94 133.7 112.8 134.2C131.7 134.7 150.3 135.3 169 135.3C187.7 135.3 206.3 134.7 225 134.2C243.7 133.7 262.3 133.3 281.2 134.2C300 135 319 137 337.8 139.3C356.7 141.7 375.3 144.3 394 144C412.7 143.7 431.3 140.3 450 139.5C468.7 138.7 487.3 140.3 506.2 142C525 143.7 544 145.3 562.8 144.3C581.7 143.3 600.3 139.7 619 140.3C637.7 141 656.3 146 675 148.3C693.7 150.7 712.3 150.3 731.2 147.7C750 145 769 140 787.8 139.3C806.7 138.7 825.3 142.3 844 143C862.7 143.7 881.3 141.3 890.7 140.2L900 139L900 201L890.7 201C881.3 201 862.7 201 844 201C825.3 201 806.7 201 787.8 201C769 201 750 201 731.2 201C712.3 201 693.7 201 675 201C656.3 201 637.7 201 619 201C600.3 201 581.7 201 562.8 201C544 201 525 201 506.2 201C487.3 201 468.7 201 450 201C431.3 201 412.7 201 394 201C375.3 201 356.7 201 337.8 201C319 201 300 201 281.2 201C262.3 201 243.7 201 225 201C206.3 201 187.7 201 169 201C150.3 201 131.7 201 112.8 201C94 201 75 201 56.2 201C37.3 201 18.7 201 9.3 201L0 201Z" fill="#00bdb4"></path><path d="M0 155L9.3 156.3C18.7 157.7 37.3 160.3 56.2 158.5C75 156.7 94 150.3 112.8 148.3C131.7 146.3 150.3 148.7 169 151.2C187.7 153.7 206.3 156.3 225 156.3C243.7 156.3 262.3 153.7 281.2 152C300 150.3 319 149.7 337.8 151.7C356.7 153.7 375.3 158.3 394 159.8C412.7 161.3 431.3 159.7 450 157.5C468.7 155.3 487.3 152.7 506.2 151.3C525 150 544 150 562.8 150.5C581.7 151 600.3 152 619 152.8C637.7 153.7 656.3 154.3 675 156C693.7 157.7 712.3 160.3 731.2 158.7C750 157 769 151 787.8 150.8C806.7 150.7 825.3 156.3 844 156.5C862.7 156.7 881.3 151.3 890.7 148.7L900 146L900 201L890.7 201C881.3 201 862.7 201 844 201C825.3 201 806.7 201 787.8 201C769 201 750 201 731.2 201C712.3 201 693.7 201 675 201C656.3 201 637.7 201 619 201C600.3 201 581.7 201 562.8 201C544 201 525 201 506.2 201C487.3 201 468.7 201 450 201C431.3 201 412.7 201 394 201C375.3 201 356.7 201 337.8 201C319 201 300 201 281.2 201C262.3 201 243.7 201 225 201C206.3 201 187.7 201 169 201C150.3 201 131.7 201 112.8 201C94 201 75 201 56.2 201C37.3 201 18.7 201 9.3 201L0 201Z" fill="#007e91"></path><path d="M0 165L9.3 165.2C18.7 165.3 37.3 165.7 56.2 165C75 164.3 94 162.7 112.8 161.7C131.7 160.7 150.3 160.3 169 162.7C187.7 165 206.3 170 225 169.8C243.7 169.7 262.3 164.3 281.2 163C300 161.7 319 164.3 337.8 165.2C356.7 166 375.3 165 394 165.2C412.7 165.3 431.3 166.7 450 168.5C468.7 170.3 487.3 172.7 506.2 171.8C525 171 544 167 562.8 164.7C581.7 162.3 600.3 161.7 619 161.5C637.7 161.3 656.3 161.7 675 162.2C693.7 162.7 712.3 163.3 731.2 164.7C750 166 769 168 787.8 169C806.7 170 825.3 170 844 168.5C862.7 167 881.3 164 890.7 162.5L900 161L900 201L890.7 201C881.3 201 862.7 201 844 201C825.3 201 806.7 201 787.8 201C769 201 750 201 731.2 201C712.3 201 693.7 201 675 201C656.3 201 637.7 201 619 201C600.3 201 581.7 201 562.8 201C544 201 525 201 506.2 201C487.3 201 468.7 201 450 201C431.3 201 412.7 201 394 201C375.3 201 356.7 201 337.8 201C319 201 300 201 281.2 201C262.3 201 243.7 201 225 201C206.3 201 187.7 201 169 201C150.3 201 131.7 201 112.8 201C94 201 75 201 56.2 201C37.3 201 18.7 201 9.3 201L0 201Z" fill="#074459"></path><path d="M0 175L9.3 176.2C18.7 177.3 37.3 179.7 56.2 180.8C75 182 94 182 112.8 181.2C131.7 180.3 150.3 178.7 169 178C187.7 177.3 206.3 177.7 225 177.7C243.7 177.7 262.3 177.3 281.2 178.8C300 180.3 319 183.7 337.8 185.2C356.7 186.7 375.3 186.3 394 185.5C412.7 184.7 431.3 183.3 450 184.2C468.7 185 487.3 188 506.2 188C525 188 544 185 562.8 184.5C581.7 184 600.3 186 619 186.7C637.7 187.3 656.3 186.7 675 186.8C693.7 187 712.3 188 731.2 187.7C750 187.3 769 185.7 787.8 185.7C806.7 185.7 825.3 187.3 844 187.3C862.7 187.3 881.3 185.7 890.7 184.8L900 184L900 201L890.7 201C881.3 201 862.7 201 844 201C825.3 201 806.7 201 787.8 201C769 201 750 201 731.2 201C712.3 201 693.7 201 675 201C656.3 201 637.7 201 619 201C600.3 201 581.7 201 562.8 201C544 201 525 201 506.2 201C487.3 201 468.7 201 450 201C431.3 201 412.7 201 394 201C375.3 201 356.7 201 337.8 201C319 201 300 201 281.2 201C262.3 201 243.7 201 225 201C206.3 201 187.7 201 169 201C150.3 201 131.7 201 112.8 201C94 201 75 201 56.2 201C37.3 201 18.7 201 9.3 201L0 201Z" fill="#001220"></path></svg>